<?xml version="1.0" encoding="utf-8"?>
<!-- Generator: Adobe Illustrator 23.0.6, SVG Export Plug-In . SVG Version: 6.00 Build 0)  -->
<svg version="1.1" id="Layer_1" xmlns="http://www.w3.org/2000/svg" xmlns:xlink="http://www.w3.org/1999/xlink" x="0px" y="0px"
	 viewBox="0 0 2048 2048" style="enable-background:new 0 0 2048 2048;" xml:space="preserve">
<style type="text/css">
	.st0{fill:#FFFFFF;}
</style>
<g>
	<g>
		<path class="st0" d="M973.1,1970.7c4.6,0,7.1,2.5,7.1,7.1v24.3c0,4.6-2.5,7.1-7.1,7.1H814.7c-4.6,0-7.1-2.5-7.1-7.1v-20
			c0-3.6,0-7.1,4.3-11.8l68.1-70.3c31.8-33.2,53.2-59.6,53.2-84.6c0-21.1-16.4-37.1-43.2-37.1c-22.1,0-40,11.1-48.5,33.5
			c-1.4,4.3-3.9,6.1-7.8,6.1h-25.3c-5.3,0-7.8-2.9-6.4-7.8c8.9-34.3,38.9-68.5,90.6-68.5c53.5,0,80.3,36.4,80.3,72.8
			c0,36-27.8,69.2-64.6,109.5l-41,45v1.8H973.1z"/>
		<path class="st0" d="M1200.8,1875.1c0,86.7-37.1,137.7-95.6,137.7c-57.1,0-93.1-48.9-93.1-133.8c0-86,37.5-134.9,96-134.9
			C1165.1,1744.2,1200.8,1790.9,1200.8,1875.1z M1054.5,1873.7c0,69.2,20.3,102.4,54.6,102.4c33.5,0,49.9-31.8,49.9-94.2
			c0-69.2-20.7-101-54.6-101C1070.5,1780.9,1054.5,1811.2,1054.5,1873.7z"/>
		<path class="st0" d="M1413.8,1970.7c4.6,0,7.1,2.5,7.1,7.1v24.3c0,4.6-2.5,7.1-7.1,7.1h-158.4c-4.6,0-7.1-2.5-7.1-7.1v-20
			c0-3.6,0-7.1,4.3-11.8l68.1-70.3c31.8-33.2,53.2-59.6,53.2-84.6c0-21.1-16.4-37.1-43.2-37.1c-22.1,0-40,11.1-48.5,33.5
			c-1.4,4.3-3.9,6.1-7.8,6.1h-25.3c-5.3,0-7.8-2.9-6.4-7.8c8.9-34.3,38.9-68.5,90.6-68.5c53.5,0,80.3,36.4,80.3,72.8
			c0,36-27.8,69.2-64.6,109.5l-41,45v1.8H1413.8z"/>
		<path class="st0" d="M1641.4,1875.1c0,86.7-37.1,137.7-95.6,137.7c-57.1,0-93.1-48.9-93.1-133.8c0-86,37.5-134.9,96-134.9
			C1605.7,1744.2,1641.4,1790.9,1641.4,1875.1z M1495.1,1873.7c0,69.2,20.3,102.4,54.6,102.4c33.5,0,49.9-31.8,49.9-94.2
			c0-69.2-20.7-101-54.6-101C1511.2,1780.9,1495.1,1811.2,1495.1,1873.7z"/>
	</g>
	<g>
		<polygon class="st0" points="578.4,1423.3 620.6,1422.9 620.6,1349.6 553.4,1397.6 		"/>
		<path class="st0" d="M1024,35.2c-367.5,0-665.4,297.9-665.4,665.4v18.8v1293.4h262v-51.1l-155.3-0.9c-3.1,0-4.8-1.7-4.8-4.8v-69.7
			c0-37,22.3-61.7,54.8-61.7c32.7,0,57.9,24.7,57.9,61.7v45.4l47.4-0.4v-155.5c-13.4,13.5-33.5,21.5-60.2,21.4l-95.1-0.5
			c-3.1,0-4.8-1.7-4.8-4.8v-18.7c0-3.1,1.7-4.8,4.8-4.8l92-0.5c39.9-0.5,57.4-17.3,57.4-45.2c0-28.3-17.8-43.7-57.4-44l-92-0.5
			c-3.1,0-4.8-1.7-4.8-4.8v-18.7c0-3.1,1.7-4.8,4.8-4.8l95.1-0.5c26.7-0.1,46.8,7.9,60.2,21.5v-54.7l-155.3-0.9
			c-3.1,0-4.8-1.7-4.8-4.8v-69.4c0-36.3,21.4-59.3,50.4-59.3c24.5,0,45.2,16.6,50.7,44.4l59-41.9v-31.2l-155.3-0.9
			c-3.1,0-4.8-1.7-4.8-4.8v-18.7c0-3.1,1.7-4.8,4.8-4.8l80-0.5l-82.4-84.1c-1.7-1.7-2.4-3.4-2.4-5.8v-22.8c0-4.3,2.9-5.5,6-2.4
			l68.7,70.4l85.4-65v-45.1l-155.3-0.7c-3.1,0-4.8-1.7-4.8-4.8v-18.7c0-3.1,1.7-4.8,4.8-4.8l155.3-1.1v-8.8v-31.3l-156.2-57.5
			c-2.6-1-3.8-2.6-3.8-5.5v-22.8c0-2.9,1.2-4.6,3.8-5.5l156.2-57.5v-25.2l-155.3-0.9c-3.1,0-4.8-1.7-4.8-4.8v-61.7
			c0-56.9,33.9-86.2,85.3-86.2c31.9,0,58.8,11,74.8,32.8V851l-156.2-57.5c-2.6-1-3.8-2.6-3.8-5.5v-22.8c0-2.9,1.2-4.6,3.8-5.5
			l156.2-57.5v-1.5c0-222.8,180.6-403.4,403.4-403.4s403.4,180.6,403.4,403.4c0,214-166.6,389-377.2,402.6v-0.1H878.4H770.5v262.2
			h107.9v-0.1h113c10.8,0.5,21.7,0.8,32.6,0.8c367.5,0,665.4-297.9,665.4-665.4S1391.5,35.2,1024,35.2z M444.6,1131
			c0,3.8-2.4,5.3-5.8,3.4l-29.3-15.6c-2.4-1.4-3.4-3.1-3.4-5.8v-16.8c0-4.1,2.6-5.3,5.8-2.6l29.8,23.8c2.2,1.4,2.9,3.1,2.9,5.8V1131
			z"/>
		<polygon class="st0" points="563.3,1586.4 620.6,1586 620.6,1519.8 563.3,1557.8 		"/>
		<polygon class="st0" points="585.1,1156.5 620.6,1168.9 620.6,1079.6 585.1,1091.8 		"/>
		<polygon class="st0" points="585.1,808.9 620.6,821.3 620.6,732 585.1,744.3 		"/>
		<path class="st0" d="M485.4,959v36l125.6-1v-35.3c0-38-23.1-59.6-62.2-59.6C507.3,899.2,485.4,921.1,485.4,959z"/>
		<path class="st0" d="M485.4,1544.6v42.3l52.8-0.5v-41.8c0-23.8-9.4-34.3-25.2-34.3C496,1510.3,485.4,1523,485.4,1544.6z"/>
		<path class="st0" d="M485.4,1888.6v43.7l62.7-0.5v-43.2c0-23.3-11.3-35.5-30-35.5C497.9,1853,485.4,1867.7,485.4,1888.6z"/>
		<polygon class="st0" points="559.4,799.8 559.4,753.2 495.1,775.7 495.1,777.2 		"/>
		<polygon class="st0" points="559.4,1147.3 559.4,1100.7 495.1,1123.3 495.1,1124.7 		"/>
	</g>
</g>
<g>
</g>
<g>
</g>
<g>
</g>
<g>
</g>
<g>
</g>
<g>
</g>
</svg>
