<svg xmlns="http://www.w3.org/2000/svg" viewBox="0 0 110.23 94.22"><defs><style>.cls-1{fill:#199f58;}.cls-2{fill:#e2001a;}.cls-3{fill:#003e90;}</style></defs><title>Asset 1</title><g id="Layer_2" data-name="Layer 2"><g id="Vrstva_1" data-name="Vrstva 1"><path class="cls-1" d="M110.23,90.11A4.09,4.09,0,1,1,106.15,86,4.08,4.08,0,0,1,110.23,90.11Z"/><path class="cls-1" d="M42.7,47.66V15.31h4.63v12a11.35,11.35,0,0,0,7-3h0a11.44,11.44,0,0,0,3.36-8.11h0A11.46,11.46,0,0,0,54.33,8h0a11.44,11.44,0,0,0-8.12-3.36h0A11.42,11.42,0,0,0,38.1,8h0a11.39,11.39,0,0,0-3.34,7.42h0v32.2H30.13v-8.3a16.12,16.12,0,0,1-14,8.19h0A16.09,16.09,0,0,1,0,31.6H0v-1H4.62v1a11.46,11.46,0,0,0,3.36,8H8a11.44,11.44,0,0,0,8.11,3.36h0a11.44,11.44,0,0,0,8.12-3.36h0a11.44,11.44,0,0,0,3.36-8.11h0a11.44,11.44,0,0,0-3.36-8.12h0A11.44,11.44,0,0,0,16.12,20H15.06V15.35h1a16.1,16.1,0,0,1,14,8.19h0V17.2h0V17H27.59V16a11.42,11.42,0,0,0-3.36-8h0a11.45,11.45,0,0,0-8.11-3.37h0A11.49,11.49,0,0,0,8,8H8a11.44,11.44,0,0,0-3.36,8.11h0A11.44,11.44,0,0,0,8,24.26H8a11.4,11.4,0,0,0,8.12,3.36h1.05v4.63H16.11A16.1,16.1,0,0,1,0,16.15H0A16.1,16.1,0,0,1,16.11.05h0A16.11,16.11,0,0,1,31.16,10.44h0A16.11,16.11,0,0,1,46.21.05h0A16,16,0,0,1,60.16,8.2h0A16.08,16.08,0,0,1,71.1.35h0l.07,0h0a.84.84,0,0,1,.2,0h0l.38-.05h0l1-.08h0L74.24.06h0l1-.06.06,1a1.63,1.63,0,0,0,0,.2h0c0,.15,0,.37.1.62h0a8,8,0,0,0,.66,1.89h0a4.46,4.46,0,0,0,4.28,2.56h0A5.31,5.31,0,0,0,85.61,1h0V0h4.62V1a9.91,9.91,0,0,1-9.9,9.83h0A9.17,9.17,0,0,1,71.78,5h0A12.66,12.66,0,0,0,66,8h0a11.4,11.4,0,0,0-3.36,8.11h0A11.4,11.4,0,0,0,66,24.26h0a11.39,11.39,0,0,0,8.11,3.36h1v4.63h-1v-1h0v1h0a16.1,16.1,0,0,1-13.94-8h0a16.43,16.43,0,0,1-12.88,8h0V47.66ZM71.7,2.2h0ZM58.05,31.6v-1h4.63v1a11.46,11.46,0,0,0,3.36,8h0a11.4,11.4,0,0,0,8.11,3.36h0a11.44,11.44,0,0,0,8.12-3.36h0a11.48,11.48,0,0,0,3.36-8.11h0a11.48,11.48,0,0,0-3.36-8.12h0A11.44,11.44,0,0,0,74.17,20H73.11V15.35h1a16.1,16.1,0,0,1,16.1,16.1h0a16.1,16.1,0,0,1-16.1,16.1h0A16.11,16.11,0,0,1,58.05,31.6Z"/><path class="cls-2" d="M38.4,84.36c0,4.3-1.42,6.75-3.87,8.17s-5.93,1.69-10.07,1.69c-11.28,0-14-3.93-14-14.6,0-11,2.5-14.65,14-14.65C35.19,65,38.4,68,38.4,79.62V81.2H19.83c0,5,.76,6.48,4.63,6.48,2.88,0,4.74-.33,4.74-3.32ZM29,76c0-4.25-1.58-4.53-4.74-4.53-3.32,0-4.35.77-4.46,4.53Z"/><path class="cls-3" d="M61.07,51.58H51.73v8.75h9.34ZM81.39,82.16l-.06,1.52c-.11,1.95,0,3.69-2.44,3.69-1.74,0-2.06-.7-2.12-2.39V72.22H87.58V65.38H76.77v-6H67.43v6H51.73V93.89h9.34V72.22h6.36V86.29c0,7.17,4.94,7.93,10.91,7.93,7.61,0,10.49-1.74,10.49-9.51V82.16Z"/><polygon class="cls-2" points="94.66 94.08 94.66 0 96.15 0 96.15 94.08 94.66 94.08 94.66 94.08"/><polygon class="cls-2" points="44.22 94.22 44.22 51.87 45.71 51.87 45.71 94.22 44.22 94.22 44.22 94.22"/></g></g></svg>